<svg width="38" height="16" viewBox="0 0 38 16" fill="none" xmlns="http://www.w3.org/2000/svg">
<path d="M1.55908 7C1.0068 7 0.559082 7.44772 0.559082 8C0.559082 8.55228 1.0068 9 1.55908 9V7ZM36.987 8.70711C37.3775 8.31658 37.3775 7.68342 36.987 7.29289L30.623 0.928932C30.2325 0.538408 29.5993 0.538408 29.2088 0.928932C28.8183 1.31946 28.8183 1.95262 29.2088 2.34315L34.8656 8L29.2088 13.6569C28.8183 14.0474 28.8183 14.6805 29.2088 15.0711C29.5993 15.4616 30.2325 15.4616 30.623 15.0711L36.987 8.70711ZM1.55908 9H36.2799V7H1.55908V9Z" fill="black"/>
</svg>
